<svg xmlns="http://www.w3.org/2000/svg" xmlns:xlink="http://www.w3.org/1999/xlink" width="470" height="468" viewBox="0 0 470 468"><defs><filter id="a" width="111.8%" height="111.9%" x="-5.9%" y="-3.9%" filterUnits="objectBoundingBox"><feOffset dy="5" in="SourceAlpha" result="shadowOffsetOuter1"/><feGaussianBlur in="shadowOffsetOuter1" result="shadowBlurOuter1" stdDeviation="4"/><feColorMatrix in="shadowBlurOuter1" result="shadowMatrixOuter1" values="0 0 0 0 0 0 0 0 0 0 0 0 0 0 0 0 0 0 0.078125 0"/><feOffset dy="4" in="SourceAlpha" result="shadowOffsetOuter2"/><feGaussianBlur in="shadowOffsetOuter2" result="shadowBlurOuter2" stdDeviation="5.5"/><feColorMatrix in="shadowBlurOuter2" result="shadowMatrixOuter2" values="0 0 0 0 0 0 0 0 0 0 0 0 0 0 0 0 0 0 0.210824275 0"/><feMerge><feMergeNode in="shadowMatrixOuter1"/><feMergeNode in="shadowMatrixOuter2"/></feMerge></filter><path id="b" d="M9.635 132.808C24.782 59.782 71.388 19.109 144.085 6.822c53.74-9.081 107.5-9.196 161.15.255 74.852 13.185 119.85 56.23 134.185 130.36 11.075 57.29 11.249 115.191-.174 172.427-15.324 72.52-63.132 117.285-135.561 129.527-53.74 9.08-107.5 9.195-161.15-.255-74.852-13.186-120.05-58.38-134.384-132.509-11.64-57.668-10.52-115.935 1.484-173.82z"/></defs><g fill="none" fill-rule="evenodd" transform="translate(-21 -26)"><g transform="translate(32 33)"><use fill="#000" filter="url(#a)" xlink:href="#b"/><use fill="#60BAFF" xlink:href="#b"/></g><path fill="#FFF" d="M297.336 148.102C269.564 120.026 219 95 219 95v192.005c0 9.206-2.837 18.268-8.472 25.55-5.488 7.09-14.285 13.536-28.131 13.536-16.225 0-24.896-9.6-24.896-24.833 0-15.234 15.243-25.695 31.16-28.833 3.38-.667 8.339-.98 8.339-.98v-17.27a58.9 58.9 0 0 0-3-.084c-27.622 0-55 22.065-55 48s16.71 41.667 44.334 41.667c27.398 0 52.912-19.72 52.912-62.986 0-43.264.088-157.753.088-157.753 11.372 6.37 29.556 17.522 45.534 31.652 25.534 22.58-8.534 60.42-8.534 60.42l13.333 11.667s40.333-48.667 10.669-78.656" transform="translate(32 33)"/></g></svg>